<?xml version="1.0" encoding="UTF-8" standalone="no"?>
<svg
   xmlns:dc="http://purl.org/dc/elements/1.1/"
   xmlns:cc="http://creativecommons.org/ns#"
   xmlns:rdf="http://www.w3.org/1999/02/22-rdf-syntax-ns#"
   xmlns:svg="http://www.w3.org/2000/svg"
   xmlns="http://www.w3.org/2000/svg"
   xmlns:sodipodi="http://sodipodi.sourceforge.net/DTD/sodipodi-0.dtd"
   xmlns:inkscape="http://www.inkscape.org/namespaces/inkscape"
   version="1.1"
   width="1050.5"
   height="33.128586"
   id="svg42"
   sodipodi:docname="fm cosine.svg"
   inkscape:version="1.0.1 (3bc2e813f5, 2020-09-07)">
  <metadata
     id="metadata48">
    <rdf:RDF>
      <cc:Work
         rdf:about="">
        <dc:format>image/svg+xml</dc:format>
        <dc:type
           rdf:resource="http://purl.org/dc/dcmitype/StillImage" />
      </cc:Work>
    </rdf:RDF>
  </metadata>
  <defs
     id="defs46" />
  <sodipodi:namedview
     pagecolor="#ffffff"
     bordercolor="#666666"
     borderopacity="1"
     objecttolerance="10"
     gridtolerance="10"
     guidetolerance="10"
     inkscape:pageopacity="0"
     inkscape:pageshadow="2"
     inkscape:window-width="1680"
     inkscape:window-height="1028"
     id="namedview44"
     showgrid="false"
     inkscape:zoom="0.78862661"
     inkscape:cx="525.25"
     inkscape:cy="-81.85134"
     inkscape:window-x="1272"
     inkscape:window-y="-8"
     inkscape:window-maximized="1"
     inkscape:current-layer="svg42" />
  <g
     clip-path="url(#EmTeVkHXVqxV)"
     id="g40"
     transform="translate(1.25,-547.85134)">
    <g
       id="g38">
      <rect
         stroke="none"
         x="0"
         y="0"
         width="1048"
         height="932"
         fill-opacity="1"
         fill="#ffffff"
         id="rect30" />
      <path
         fill="none"
         stroke="#000000"
         paint-order="fill stroke markers"
         d="m 631.88354,579.72992 2.64771,-0.0572 m 0,0 4.09375,-0.31225 m 0,0 4.09375,-0.57882 4.09375,-0.83506 4.09375,-1.0764 L 655,575.57165 m 0,0 4.09375,-1.49755 4.09375,-1.66983 4.09375,-1.81233 4.09375,-1.9225 4.09375,-1.99839 4.09375,-2.03864 4.09375,-2.04252 4.09375,-2.00998 4.09375,-1.94159 4.09375,-1.83857 4.09375,-1.70276 4.09375,-1.53658 4.09375,-1.34299 4.09375,-1.12545 4.09375,-0.88784 4.09375,-0.6344 4.09375,-0.36964 4.09375,-0.0983 4.09375,0.17483 4.09375,0.44481 4.09375,0.70686 4.09375,0.95632 4.09375,1.1887 4.09375,1.3999 4.09375,1.58612 4.09375,1.74405 4.09375,1.87088 4.09375,1.96435 4.09375,2.02276 4.09375,2.04512 4.09375,2.031 4.09375,1.98064 m 0,0 4.09375,1.89497 4.09375,1.7755 4.09375,1.62437 4.09375,1.44425 4.09375,1.23839 4.09375,1.01043 4.09375,0.76445 4.09375,0.50485 4.09375,0.23623 4.09375,-0.0366 4.09375,-0.30877 4.09375,-0.57544 4.09375,-0.83184 4.09375,-1.07341 4.09375,-1.29583 4.09375,-1.49514 4.09375,-1.6678 4.09375,-1.81069 4.09375,-1.9213 4.09375,-1.99763 4.09375,-2.03835 4.09375,-2.04271 4.09375,-2.01063 4.09375,-1.94269 4.09375,-1.84011 4.09375,-1.70471 4.09375,-1.5389 4.09375,-1.34565 4.09375,-1.1284 4.09375,-0.89101 4.09375,-0.63775 4.09375,-0.3731 4.09375,-0.1018 4.09375,0.17131 4.09375,0.44137 4.09375,0.70356 4.09375,0.9532 4.09375,1.18583 4.09375,1.39733 4.09375,1.58389 4.09375,1.74221 4.09375,1.86945 4.09375,1.96336 4.09375,2.02225 4.09375,2.04506 4.09375,2.03141 4.09375,1.98152 4.09375,1.89629 4.09375,1.77725 4.09375,1.6265 4.09375,1.44675 4.09375,1.24119 4.0937,1.01349 4.0938,0.76773 4.0937,0.50826 4.0938,0.23973 4.0937,-0.0331 4.0938,-0.30529 4.0937,-0.57205 4.0938,-0.82862 4.0938,-1.07041 4.0937,-1.2931 4.0938,-1.49274 4.0937,-1.66575"
         stroke-opacity="1"
         stroke-linecap="round"
         stroke-linejoin="round"
         stroke-miterlimit="10"
         stroke-width="2.5"
         id="path32" />
      <path
         fill="none"
         stroke="#000000"
         paint-order="fill stroke markers"
         d="m 0,577.81573 4.09375,-1.10744 4.09375,-1.32671 4.09375,-1.52231 4.09375,-1.69075 4.09375,-1.82905 4.09375,-1.93472 4.09375,-2.00589 4.09375,-2.04128 4.09375,-2.04027 4.09375,-2.00286 4.09375,-1.92973 4.09375,-1.8222 4.09375,-1.68215 4.09375,-1.5121 4.09375,-1.31509 4.09375,-1.09463 4.09375,-0.85463 4.09375,-0.59941 4.09375,-0.33347 4.09375,-0.0616 4.09375,0.21137 4.09375,0.48056 4.09375,0.74119 4.09375,0.98861 4.09375,1.21838 4.09375,1.42643 4.09375,1.60904 4.09375,1.76294 4.09375,1.88542 4.09375,1.97425 4.09375,2.02788 4.09375,2.04535 4.09375,2.02632 4.09375,1.97117 4.09375,1.88085 4.09375,1.75699 4.09375,1.6018 4.09375,1.41803 4.09375,1.20898 4.09375,0.97836 4.09375,0.73029 4.09375,0.46919 4.09375,0.19974 4.09375,-0.0733 4.09375,-0.345 4.09375,-0.61057 4.09375,-0.86524 4.09375,-1.10447 4.09375,-1.32403 4.09375,-1.51995 4.09375,-1.68877 4.09375,-1.82747 4.09375,-1.93357 4.09375,-2.0052 4.09375,-2.04106 4.09375,-2.04051 4.09375,-2.00357 4.09375,-1.9309 4.09375,-1.82379 4.09375,-1.68415 4.09375,-1.51448 4.09375,-1.31779 4.09375,-1.0976 L 262,550.11334 m 0,0 4.09375,-0.60277 4.09375,-0.33696 4.09375,-0.0651 4.09375,0.20785 4.09375,0.47714 4.09375,0.73791 4.09375,0.98552 4.09375,1.21555 4.09375,1.4239 4.09375,1.60686 4.09375,1.76116 4.09375,1.88404 4.09375,1.97333 4.09375,2.02742 4.09375,2.04535 4.09375,2.0268 m 0,0 4.09375,1.97211 4.09375,1.88223 4.09375,1.7588 4.09375,1.60398 4.09375,1.42057 4.09375,1.21182 4.09375,0.98145 4.09375,0.73358 m 0,0 4.09375,0.47263 4.09375,0.20324 m 0,0 1.00191,0.008"
         stroke-opacity="1"
         stroke-linecap="round"
         stroke-linejoin="round"
         stroke-miterlimit="10"
         stroke-width="2.5"
         id="path34" />
      <path
         fill="none"
         stroke="#000000"
         paint-order="fill stroke markers"
         d="m 369.43941,579.72992 3.09184,-0.37607 m 0,0 4.09375,-1.61869 m 0,0 4.09375,-2.762 4.09375,-3.66825 4.09375,-4.25965 L 393,562.55981 m 0,0 4.09375,-4.32626 4.09375,-3.79574 4.09375,-2.93945 2.04687,-1.06625 2.04688,-0.76459 2.04687,-0.44645 2.04688,-0.11866 2.04687,0.21168 2.04688,0.53745 2.04687,0.85164 2.04688,1.14744 4.09375,3.07744 4.09375,3.89166 4.09375,4.37187 4.09375,4.47683 4.09375,4.19755 4.09375,3.55799 4.09375,2.61305 2.04687,0.87833 2.04688,0.56549 2.04687,0.24046 2.04688,-0.0898 2.04687,-0.41806 2.04688,-0.73733 2.04687,-1.0407 2.04688,-1.32161 4.09375,-3.36646 4.09375,-4.08166 4.09375,-4.44655 4.09375,-4.42977 4.09375,-4.0328 4.09375,-3.28968 4.09375,-2.26422 1.02344,-0.38084 1.02343,-0.30203 2.04688,-0.36154 2.04687,-0.0324 2.04688,0.29744 2.04687,0.62085 2.04688,0.93089 4.09375,2.70525 4.09375,3.62657 4.09375,4.23663 4.09375,4.48304 m 0,0 4.09375,4.34469 4.09375,3.83342 4.09375,2.99314 2.04687,1.0977 2.04688,0.79824 2.04687,0.48155 2.04688,0.15448 2.04687,-0.17594 2.04688,-0.50254 2.04687,-0.81832 2.04688,-1.11644 4.09375,-3.02497 4.09375,-3.85555 4.09375,-4.35521 4.09375,-4.48106 4.09375,-4.2223 4.09375,-3.60113 4.09375,-2.67089 2.04687,-0.91125 2.04688,-0.60015 2.04687,-0.27609 2.04688,0.0539 m 0,0 4.09375,1.0861 1.02344,0.46741 1.02343,0.54135 2.04688,1.29241 4.09375,3.31872 4.09375,4.05142 4.09375,4.4364 4.09375,4.4406 4.09375,4.06366 4.09375,3.33793 m 0,0 4.09375,2.32571 1.02344,0.39768 1.02343,0.31929 2.04688,0.3969 m 0,0 1.44604,0.0825"
         stroke-opacity="1"
         stroke-linecap="round"
         stroke-linejoin="round"
         stroke-miterlimit="10"
         stroke-width="2.5"
         id="path36" />
    </g>
  </g>
</svg>
